<svg width="512" height="512" viewBox="0 0 512 512" fill="none" xmlns="http://www.w3.org/2000/svg">
<path d="M512 480H0V512H512V480Z" fill="#B52E57"/>
<path d="M416 400H0V432H416V400Z" fill="#B52E57"/>
<path d="M320 320H0V352H320V320Z" fill="#B52E57"/>
<path d="M224 240H0V272H224V240Z" fill="#B52E57"/>
<path d="M160 160H0V192H160V160Z" fill="#B52E57"/>
<path d="M128 80H0V112H128V80Z" fill="#B52E57"/>
<path d="M64 0H0V32H64V0Z" fill="#B52E57"/>
<path d="M452.193 260.284L431.505 280.972V31.5961H399.505V280.636L379.457 260.348L356.689 282.844L404.129 330.844C407.137 333.884 410.721 335.804 415.505 335.596C419.745 335.596 423.825 333.916 426.817 330.908L474.817 282.908L452.193 260.284V260.284Z" fill="#B52E57"/>
</svg>
