<svg width="512" height="512" viewBox="0 0 512 512" fill="none" xmlns="http://www.w3.org/2000/svg">
<path d="M512 0H0V32H512V0Z" fill="#B52E57"/>
<path d="M416 80H0V112H416V80Z" fill="#B52E57"/>
<path d="M320 160H0V192H320V160Z" fill="#B52E57"/>
<path d="M224 240H0V272H224V240Z" fill="#B52E57"/>
<path d="M163.189 320H3.18872V352H163.189V320Z" fill="#B52E57"/>
<path d="M128 400H0V432H128V400Z" fill="#B52E57"/>
<path d="M64 480H0V512H64V480Z" fill="#B52E57"/>
<path d="M427.312 164.688C421.056 158.432 410.944 158.432 404.688 164.688L356.688 212.688L379.312 235.312L400 214.624V464H432V214.624L452.688 235.312L475.312 212.688L427.312 164.688Z" fill="#B52E57"/>
</svg>
