<svg width="383" height="383" viewBox="0 0 383 383" fill="none" xmlns="http://www.w3.org/2000/svg">
<g clip-path="url(#clip0)">
<path d="M118.632 109.948L141.264 87.316L70.632 16.684L0 87.316L22.632 109.948L54.632 77.948V304.684L22.632 272.684L0 295.316L70.632 365.948L141.264 295.316L118.632 272.684L86.632 304.684V77.948L118.632 109.948Z" fill="#B52E57"/>
<path d="M382.632 15.316H174.632V47.316H382.632V15.316Z" fill="#B52E57"/>
<path d="M382.632 175.316H174.632V207.316H382.632V175.316Z" fill="#B52E57"/>
<path d="M318.632 95.316H174.632V127.316H318.632V95.316Z" fill="#B52E57"/>
<path d="M318.632 255.316H174.632V287.316H318.632V255.316Z" fill="#B52E57"/>
<path d="M382.632 335.316H174.632V367.316H382.632V335.316Z" fill="#B52E57"/>
</g>
<defs>
<clipPath id="clip0">
<rect width="382.632" height="382.632" fill="white"/>
</clipPath>
</defs>
</svg>
